<svg fill="#054108" xmlns="http://www.w3.org/2000/svg" xmlns:xlink="http://www.w3.org/1999/xlink" version="1.1" x="0px" y="0px" viewBox="0 0 256 256" style="enable-background:new 0 0 256 256;" xml:space="preserve"><g><path d="M151.7,104.8c1.5,0.2,3.1,0.3,4.6,0.3c9.4,0,18.4-3.9,24.9-10.9c1.1-1.2,1.4-3,0.6-4.5c-5-9.9-14.6-16.7-25.5-18.2   c-7.4-1-14.8,0.5-21.2,4c0-7.3-2.3-14.5-6.8-20.5c-6.7-8.8-17.2-13.8-28.3-13.4c-1.6,0.1-3.1,1.1-3.6,2.7   c-3.4,10.5-1.5,22.1,5.2,30.9c0,0,0,0,0,0c4.8,6.3,11.6,10.7,19.1,12.5c-2.5,3.1-3.6,6.1-3.7,9.2c0,6.7,5.6,11.3,10.7,15.4   c4,3.3,8.2,6.6,8.2,10c0,3-3,6.9-8.7,11.5c0,0-0.1,0.1-0.1,0.1H93.5c-4.9,0-8.5,4-8.5,8.9v6.2c0,4.3,2.9,7.9,7,8.7l2.5,46.5   c0.3,6.2,5.3,10.7,12,10.7h46c6.6,0,11.7-4.5,12-10.7l2.7-46.6c3.8-1,6.8-4.5,6.8-8.6v-6.2c0-4.9-4.3-8.9-9.2-8.9h-26.2   c3.5-4,5.2-7.7,5.2-11.5c0-7.2-5.9-11.9-11.1-16.2c-3.8-3.1-7.8-6.3-7.7-9.2c0-1.7,1.3-3.9,3.8-6.4   C134,98.3,142.4,103.5,151.7,104.8z M152.5,207h-46c-0.6,0-3.9-0.1-4.1-3.1L99.9,158H159l-2.5,45.9   C156.3,206.9,153.1,207,152.5,207z M166,149.1c0,0.5-0.4,0.9-0.9,0.9H93.9c-0.5,0-0.9-0.4-0.9-0.9v-6.2c0-0.5,0.4-0.9,0.9-0.9h71.2   c0.5,0,0.9,0.4,0.9,0.9V149.1z M155.2,79.4c7.4,1,14,5.3,18.1,11.5c-5.6,4.9-13.1,7.1-20.6,6.1c-7.4-1-14-5.3-18.1-11.5   C140.3,80.6,147.8,78.3,155.2,79.4z M107.8,70.6L107.8,70.6c-4.5-6-6.2-13.6-4.7-20.9c7.4,0.5,14.3,4.2,18.9,10.2   c4.5,6,6.2,13.6,4.7,20.9C119.3,80.3,112.4,76.6,107.8,70.6z"></path><path d="M145.3,89l13.9,1.9c0.1,0,0.2,0,0.3,0c1,0,1.8-0.7,1.9-1.7c0.1-1.1-0.6-2.1-1.7-2.2l-13.9-1.9c-1.1-0.1-2.1,0.6-2.2,1.7   C143.5,87.8,144.2,88.8,145.3,89z"></path><path d="M113.2,59.7c-0.7-0.9-1.9-1-2.8-0.4c-0.9,0.7-1,1.9-0.4,2.8l8.4,11.2c0.4,0.5,1,0.8,1.6,0.8c0.4,0,0.8-0.1,1.2-0.4   c0.9-0.7,1-1.9,0.4-2.8L113.2,59.7z"></path><path d="M229.2,133.3l-2.3-2.3c-2.2-2.2-3.6-5.1-3.9-8.2l-3.8-36.4c-0.5-4.4-2.2-8.5-5.1-11.9L190,46.5c-3.1-3.6-8.6-4.1-12.2-1   c-3.5,2.9-4.1,8.1-1.5,11.8l18.3,25.3c-4.2,0.6-7.6,3.8-8.5,8.1l-4.6,22.7c-1.6,7.9,0.3,16,5.3,22.4l16.9,21.6   c1.6,2.1,4.1,3.4,6.7,3.5c0.2,0,0.4,0,0.6,0c2.4,0,4.8-1,6.5-2.7l11.8-11.8c1.7-1.7,2.7-4.1,2.7-6.5S231,135.1,229.2,133.3z    M223.7,140.8l-11.8,11.8c-0.4,0.4-0.8,0.4-1,0.4c-0.2,0-0.7-0.1-1-0.5L193,130.9c-3.5-4.5-4.9-10.3-3.8-15.9l4.6-22.9   c0.2-1.1,1.2-2.1,2.3-2.1c0,0,0,0,0.1,0c1.3,0,2.2,1.2,2.3,2.5l0.1,22.7c0,2.2,1.8,3.9,3.9,3.9c0,0,0,0,0,0c2.2,0,4.3-1.6,4.2-3.8   l0.3-22.5c0,0,0-0.1,0-0.1l-0.3-4c0-2.2-0.8-4.2-2.1-6l-21.8-30c-0.3-0.4-0.2-0.9,0.1-1.1c0.4-0.3,0.9-0.3,1.2,0.1l24.1,28.1   c1.8,2.1,3,4.8,3.3,7.6l3.8,36.4c0.5,4.9,2.7,9.5,6.2,12.9l2.3,2.3c0.3,0.3,0.4,0.7,0.4,1S224,140.5,223.7,140.8z"></path><path d="M81.3,45.5c-3.6-3.1-9.1-2.6-12.2,1L45,74.6c-2.9,3.4-4.7,7.5-5.1,11.9l-3.8,36.4c-0.3,3.1-1.7,6-3.9,8.2l-2.3,2.3   c-3.6,3.6-3.6,9.4,0,13l11.8,11.8c1.7,1.7,4.1,2.7,6.5,2.7c0.2,0,0.4,0,0.6,0c2.6-0.2,5.1-1.4,6.7-3.5l16.9-21.6   c5-6.3,6.9-14.5,5.3-22.4l-4.6-22.7c-0.9-4.3-4.3-7.4-8.5-8.1l18.3-25.3c0,0,0,0,0,0C85.4,53.6,84.8,48.4,81.3,45.5z M76.4,52.7   l-21.7,30c-1.3,1.7-1.8,3.8-1.8,6l0.1,26.8v0c0,2.2,1.4,3.6,3.6,3.6c0,0,0,0,0,0c2.2,0,3.9-1.6,3.9-3.8l0.1-22.6   c0-1.3,1-2.3,2.3-2.3c1.1,0,2.1,0.8,2.3,1.9l4.6,22.7c1.1,5.6-0.2,11.4-3.8,15.9l-16.9,21.6c-0.3,0.4-0.8,0.5-1,0.5   c-0.2,0-0.7,0-1-0.4l-11.8-11.8c-0.5-0.5-0.5-1.4,0-1.9l2.3-2.3c3.5-3.5,5.6-8.1,6.2-12.9l3.8-36.4c0.3-2.8,1.4-5.4,3.3-7.6   l24.1-28.1c0.2-0.2,0.4-0.3,0.6-0.3c0.2,0,0.4,0.1,0.5,0.2C76.6,51.8,76.7,52.3,76.4,52.7z"></path></g></svg>